<?xml version="1.0" encoding="UTF-8"?>
<svg
  xmlns="http://www.w3.org/2000/svg"
  width="64"
  height="64"
  viewBox="0 0 64 64"
>
  <!-- Background: circular black -->
  <circle cx="32" cy="32" r="32" fill="#000" />

  <!-- White edges of the outer network -->
  <path d="M32 10 L20 26" stroke="#fffdf3" stroke-width="3" stroke-linecap="round"/>
  <path d="M32 10 L44 26" stroke="#fffdf3" stroke-width="3" stroke-linecap="round"/>
  <path d="M20 26 L14 40" stroke="#fffdf3" stroke-width="3" stroke-linecap="round"/>
  <path d="M44 26 L50 40" stroke="#fffdf3" stroke-width="3" stroke-linecap="round"/>
  <path d="M14 40 L32 54" stroke="#fffdf3" stroke-width="3" stroke-linecap="round"/>
  <path d="M50 40 L32 54" stroke="#fffdf3" stroke-width="3" stroke-linecap="round"/>

  <!-- Yellow “V” shape in the center -->
  <path d="M20 26 L26 36" stroke="#ffd500" stroke-width="3" stroke-linecap="round"/>
  <path d="M26 36 L32 54" stroke="#ffd500" stroke-width="3" stroke-linecap="round"/>
  <path d="M44 26 L38 36" stroke="#ffd500" stroke-width="3" stroke-linecap="round"/>
  <path d="M38 36 L32 54" stroke="#ffd500" stroke-width="3" stroke-linecap="round"/>

  <!-- Nodes -->
  <!-- Top node -->
  <circle cx="32" cy="10" r="3" fill="#fffdf3"/>
  <!-- Second level: now yellow as requested -->
  <circle cx="20" cy="26" r="3" fill="#ffd500"/>
  <circle cx="44" cy="26" r="3" fill="#ffd500"/>
  <!-- Third level -->
  <circle cx="14" cy="40" r="3" fill="#fffdf3"/>
  <circle cx="50" cy="40" r="3" fill="#fffdf3"/>
  <!-- Yellow nodes at V intersections -->
  <circle cx="26" cy="36" r="3" fill="#ffd500"/>
  <circle cx="38" cy="36" r="3" fill="#ffd500"/>
  <!-- Bottom V node -->
  <circle cx="32" cy="54" r="3" fill="#ffd500"/>
</svg>
